# xmcd
#
# Track frame offsets: 
#        150
#        17410
#        29785
#        45912
#        58717
#        74780
#        90870
#        104190
#        119007
#        139407
#        152420
#        169200
#        191587
#
# Disc length: 4440 seconds
#
# Revision: 1
# Processed by: cddbd v1.5.1PL0 Copyright (c) Steve Scherf et al.
# Submitted via: ExactAudioCopy v0.90b4
#
DISCID=b911560d
DTITLE=Shelby Lynne - Identity Crisis
DYEAR=2003
DGENRE=Country
TTITLE0=Telephone
TTITLE1=10 Rocks
TTITLE2=If I Were Smart
TTITLE3=Gotta Be Better
TTITLE4=I Don't Thinks So
TTITLE5=I'm Alive
TTITLE6=I Will Stay
TTITLE7=Lonesome
TTITLE8=Evil Man
TTITLE9=Buttons and Beaus
TTITLE10=Baby
TTITLE11=One With the Sun
TTITLE12=DATA TRACK
EXTD=
EXTT0=
EXTT1=
EXTT2=
EXTT3=
EXTT4=
EXTT5=
EXTT6=
EXTT7=
EXTT8=
EXTT9=
EXTT10=
EXTT11=
EXTT12=
PLAYORDER=
